<?xml version="1.0" standalone="no"?>
<!DOCTYPE svg PUBLIC "-//W3C//DTD SVG 20010904//EN"
 "http://www.w3.org/TR/2001/REC-SVG-20010904/DTD/svg10.dtd">
<svg version="1.0" xmlns="http://www.w3.org/2000/svg"
 width="1504.000000pt" height="1504.000000pt" viewBox="0 0 1504.000000 1504.000000"
 preserveAspectRatio="xMidYMid meet">
<metadata>
Created by potrace 1.11, written by Peter Selinger 2001-2013
</metadata>
<g transform="translate(0.000000,1504.000000) scale(0.100000,-0.100000)"
fill="#000000" stroke="none">
<path d="M13875 12462 c-142 -17 -319 -135 -465 -313 -25 -30 -47 -56 -50 -59
-22 -19 -160 -200 -160 -209 0 -6 -4 -11 -8 -11 -5 0 -26 -25 -48 -55 -21 -31
-47 -66 -57 -78 -11 -12 -37 -50 -60 -84 -23 -35 -45 -63 -49 -63 -4 0 -8 -5
-8 -10 0 -6 -17 -34 -38 -63 -22 -29 -41 -56 -43 -62 -2 -5 -34 -56 -71 -113
-38 -56 -68 -107 -68 -112 0 -6 -4 -10 -8 -10 -5 0 -15 -12 -23 -27 -7 -16
-39 -71 -69 -123 -31 -52 -60 -102 -63 -110 -4 -8 -17 -31 -29 -50 -35 -57
-221 -429 -253 -505 -16 -38 -33 -73 -38 -76 -5 -3 -9 -10 -9 -15 -1 -14 -78
-204 -134 -331 -8 -17 -14 -36 -14 -42 0 -6 -4 -19 -9 -29 -16 -30 -74 -187
-74 -199 0 -7 -5 -13 -10 -13 -6 0 -8 -2 -5 -6 3 -3 -17 -71 -44 -152 -27 -81
-51 -151 -52 -157 -3 -17 -37 -119 -46 -140 -4 -11 -17 -47 -28 -80 -39 -114
-94 -270 -102 -290 -5 -11 -32 -83 -60 -160 -29 -77 -56 -146 -62 -152 -6 -7
-7 -13 -2 -13 4 0 -5 -14 -21 -30 -36 -38 -51 -35 -151 25 -87 53 -238 107
-305 109 -27 0 -49 4 -49 8 0 8 -205 3 -265 -7 -119 -18 -315 -87 -425 -149
-14 -8 -46 -25 -72 -38 -27 -12 -48 -27 -48 -31 0 -5 -4 -5 -10 -2 -5 3 -10 2
-10 -3 0 -5 -13 -15 -30 -22 -16 -7 -30 -15 -30 -19 0 -3 -12 -12 -27 -18 -24
-11 -226 -157 -259 -188 -6 -5 -30 -26 -54 -45 -45 -38 -116 -103 -192 -177
-26 -25 -57 -47 -70 -48 -27 -1 -108 -42 -108 -53 0 -4 -14 -16 -32 -26 -29
-18 -50 -34 -82 -61 -6 -5 -56 -46 -111 -89 -55 -44 -132 -107 -171 -140 -39
-34 -93 -79 -119 -101 -27 -22 -59 -49 -71 -60 -53 -48 -128 -111 -146 -123
-10 -8 -29 -23 -41 -35 -24 -23 -45 -41 -142 -122 -33 -27 -65 -55 -71 -61 -6
-5 -30 -26 -54 -45 -42 -34 -82 -68 -110 -93 -8 -7 -87 -70 -175 -140 -88 -69
-165 -130 -171 -135 -5 -4 -32 -25 -60 -45 -27 -20 -53 -40 -59 -44 -27 -22
-217 -152 -265 -182 -30 -19 -57 -37 -60 -41 -3 -3 -15 -9 -27 -13 -13 -4 -23
-12 -23 -17 0 -6 -4 -7 -10 -4 -6 3 -10 2 -10 -3 0 -5 -19 -17 -42 -28 -24
-10 -49 -24 -55 -31 -7 -6 -30 -17 -50 -23 -21 -7 -42 -16 -48 -20 -39 -31
-370 -133 -474 -146 -20 -2 -43 -7 -52 -9 -22 -7 -91 -15 -166 -19 -34 -2 -65
-6 -70 -9 -13 -7 -353 -6 -353 2 0 4 -15 6 -32 6 -35 -2 -183 35 -233 56 -41
18 -135 77 -163 103 -82 75 -151 223 -155 333 -1 29 -5 53 -8 53 -12 0 1 226
18 305 2 11 6 34 8 50 4 40 12 81 30 162 9 37 18 82 21 98 3 17 12 50 20 75 8
25 22 70 32 100 9 30 21 58 25 61 5 3 7 9 5 12 -1 3 7 19 19 35 l22 30 53 -14
c98 -26 213 -14 359 36 89 30 263 111 324 150 17 11 37 23 45 27 8 3 34 19 57
35 23 15 46 28 52 28 6 0 11 5 11 10 0 6 6 10 14 10 8 0 16 4 18 8 2 4 32 28
68 52 36 25 67 47 70 51 3 3 23 18 45 35 22 16 45 34 51 39 7 6 31 26 55 45
298 241 550 575 584 772 21 117 4 224 -51 329 -55 104 -190 235 -284 275 -8 3
-24 10 -35 15 -47 21 -113 41 -150 46 -22 3 -47 9 -55 13 -17 8 -207 5 -285
-4 -40 -5 -126 -24 -220 -49 -83 -23 -292 -127 -398 -199 -147 -100 -237 -178
-388 -335 -96 -100 -278 -348 -348 -476 -12 -21 -39 -69 -60 -107 -22 -38 -37
-71 -33 -74 3 -3 0 -6 -6 -6 -7 0 -12 -9 -12 -20 0 -11 -4 -20 -10 -20 -5 0
-10 -8 -10 -18 0 -10 -6 -26 -13 -37 -8 -11 -22 -42 -32 -70 -10 -27 -22 -55
-27 -61 -5 -7 -10 -20 -13 -30 -12 -60 -40 -100 -69 -102 -5 0 -12 -4 -15 -10
-3 -5 -33 -26 -66 -47 -33 -21 -96 -65 -140 -99 -91 -70 -76 -58 -260 -211
-288 -241 -320 -268 -323 -277 -2 -4 -8 -8 -13 -8 -5 0 -17 -8 -27 -17 -10
-10 -36 -31 -57 -48 -21 -16 -43 -34 -50 -40 -24 -22 -75 -55 -85 -55 -5 0
-10 -4 -10 -8 0 -7 -105 -66 -120 -67 -3 -1 -15 -6 -27 -13 -13 -7 -24 -10
-24 -7 -5 19 -4 34 4 64 11 42 16 67 23 111 3 19 7 43 10 52 3 10 7 29 10 43
6 38 11 63 28 155 18 98 26 145 31 180 2 14 6 36 9 50 3 14 8 45 11 70 3 25 7
59 9 75 26 193 28 658 2 790 -2 11 -7 40 -11 65 -9 57 -12 68 -24 108 -5 17
-7 32 -4 32 3 0 1 6 -5 13 -6 6 -10 14 -10 17 2 12 -37 119 -60 165 -25 51
-76 130 -98 152 -7 7 -21 23 -31 36 -28 36 -104 84 -164 104 -56 19 -196 24
-254 10 -16 -5 -34 -9 -40 -10 -15 -4 -109 -51 -115 -58 -3 -3 -16 -12 -30
-19 -59 -31 -156 -115 -310 -270 -91 -91 -176 -179 -190 -195 -14 -17 -54 -64
-90 -106 -36 -41 -81 -94 -100 -118 -19 -23 -44 -52 -55 -65 -11 -12 -31 -37
-45 -56 -14 -18 -32 -41 -40 -50 -27 -32 -45 -55 -75 -95 -28 -38 -47 -62 -70
-89 -5 -7 -14 -19 -20 -28 -5 -9 -57 -76 -115 -149 -57 -74 -109 -140 -115
-147 -5 -7 -18 -21 -27 -30 -10 -9 -18 -21 -18 -27 0 -5 -16 -27 -35 -47 -19
-20 -35 -39 -35 -42 0 -3 -9 -16 -19 -28 -27 -31 -230 -287 -261 -328 -14 -18
-38 -50 -55 -70 -16 -20 -41 -51 -55 -69 -14 -18 -30 -38 -35 -44 -6 -7 -26
-32 -45 -57 -19 -25 -39 -50 -45 -56 -5 -6 -23 -28 -40 -49 -16 -20 -39 -48
-50 -61 -11 -13 -38 -45 -60 -71 -169 -200 -336 -378 -490 -517 -49 -45 -64
-54 -66 -38 -4 29 -3 82 2 82 4 0 6 14 4 31 -2 26 13 87 55 220 4 14 12 34 18
45 13 23 142 325 145 339 1 5 8 16 15 23 7 8 10 18 7 23 -4 5 -1 9 4 9 6 0 11
6 11 14 0 7 17 49 37 92 20 43 38 85 39 93 2 8 6 17 11 20 4 3 9 13 11 21 2 8
14 37 27 65 47 101 115 267 115 281 0 8 4 14 8 14 5 0 9 6 9 13 1 6 11 37 22
67 26 66 50 152 58 200 10 62 11 240 2 246 -5 3 -9 15 -9 28 0 12 -5 27 -12
34 -7 7 -8 12 -4 12 5 0 3 7 -4 15 -7 8 -10 15 -6 15 13 0 -66 113 -102 146
-34 32 -87 63 -122 72 -8 2 -45 4 -81 4 -53 0 -79 -5 -122 -26 -77 -38 -170
-131 -238 -238 -18 -29 -36 -55 -39 -58 -19 -18 -182 -364 -188 -400 0 -3 -5
-17 -10 -31 -6 -14 -16 -45 -23 -70 -7 -24 -17 -49 -22 -56 -5 -7 -6 -17 -2
-23 3 -5 2 -10 -3 -10 -5 0 -9 -6 -10 -12 -1 -15 -2 -21 -36 -140 -14 -49 -23
-88 -20 -88 3 0 0 -9 -6 -19 -5 -11 -12 -35 -14 -53 -3 -18 -5 -33 -6 -33 -3
0 -19 -72 -26 -115 -3 -19 -7 -42 -9 -50 -3 -8 -7 -33 -10 -55 -4 -22 -8 -47
-10 -55 -3 -8 -7 -33 -9 -55 -3 -22 -8 -65 -12 -95 -9 -67 -11 -320 -3 -320 3
0 6 -23 8 -52 1 -28 4 -54 6 -58 2 -3 6 -26 10 -50 11 -82 63 -252 77 -258 5
-2 8 -8 8 -14 0 -6 16 -38 37 -71 43 -72 117 -144 155 -153 16 -3 28 -10 28
-15 0 -6 3 -8 8 -5 4 2 23 1 42 -3 115 -24 260 57 443 246 140 145 157 163
157 173 0 6 4 10 8 10 5 0 33 30 62 66 30 37 59 72 65 78 39 43 95 116 95 125
0 5 6 14 13 18 11 7 245 310 322 417 11 16 25 33 30 40 6 6 24 32 41 58 17 26
34 45 38 41 3 -3 6 -1 6 6 0 7 10 26 22 41 13 16 39 50 58 77 19 26 37 50 40
53 3 3 21 26 40 53 19 26 42 56 51 67 8 10 24 31 35 46 10 15 27 35 37 46 9
10 17 21 17 25 0 3 7 13 15 22 14 14 135 169 205 261 14 18 30 38 35 44 6 6
30 36 54 66 25 30 51 61 60 68 8 6 12 12 8 12 -6 0 34 47 86 102 9 10 17 20
17 23 0 3 15 21 32 39 18 19 58 62 88 96 89 101 209 221 290 288 118 99 121
102 126 102 7 0 99 65 102 73 2 4 12 7 23 7 10 0 19 4 19 8 0 9 70 42 89 42 7
0 20 -7 29 -17 30 -30 19 -327 -23 -593 -2 -14 -6 -45 -9 -70 -3 -25 -8 -54
-10 -65 -2 -11 -7 -42 -10 -68 -8 -49 -11 -71 -21 -117 -3 -14 -8 -43 -11 -65
-3 -22 -12 -70 -20 -107 -7 -37 -16 -80 -19 -95 -6 -37 -9 -51 -35 -163 -12
-52 -23 -102 -25 -110 -2 -8 -9 -37 -15 -65 -7 -27 -14 -57 -15 -65 -1 -8 -5
-22 -8 -30 -4 -8 -9 -26 -11 -40 -3 -14 -10 -43 -16 -65 -6 -22 -12 -44 -13
-50 -1 -5 -6 -15 -9 -21 -4 -6 -10 -26 -13 -45 -7 -39 -21 -87 -76 -254 -22
-66 -41 -124 -43 -130 -2 -5 -7 -19 -11 -30 -4 -11 -21 -54 -37 -95 -45 -115
-124 -267 -172 -329 -59 -76 -131 -138 -310 -266 -36 -26 -136 -102 -159 -120
-9 -8 -21 -15 -26 -15 -5 0 -11 -3 -13 -8 -1 -4 -38 -35 -81 -70 -110 -89
-294 -245 -386 -327 -297 -266 -695 -661 -876 -870 -39 -44 -75 -84 -81 -90
-6 -5 -28 -32 -50 -60 -21 -27 -49 -61 -61 -74 -13 -13 -23 -27 -23 -32 0 -4
-11 -19 -25 -33 -14 -14 -25 -29 -25 -35 0 -5 -4 -11 -9 -13 -6 -2 -90 -121
-161 -228 -28 -42 -67 -109 -85 -145 -11 -22 -23 -42 -27 -45 -8 -7 -59 -119
-56 -123 2 -2 -2 -10 -8 -18 -9 -11 -31 -67 -39 -99 -1 -3 -5 -12 -8 -20 -11
-26 -26 -104 -21 -111 2 -4 1 -10 -3 -12 -9 -6 -8 -119 1 -182 3 -22 12 -59
20 -83 8 -23 15 -46 16 -50 1 -22 80 -138 124 -182 52 -52 154 -120 182 -120
9 0 23 -4 32 -9 57 -30 248 -31 375 -2 20 5 37 7 37 4 0 -3 6 -1 13 5 6 5 32
15 57 22 51 13 226 95 253 118 9 8 17 12 17 8 0 -4 15 4 33 18 19 15 37 26 41
26 4 0 12 4 19 10 7 5 50 38 97 71 47 34 86 66 88 71 2 4 8 8 13 8 5 0 17 8
27 17 10 10 47 43 82 73 106 91 255 245 375 385 28 32 59 68 70 81 65 74 249
313 338 439 39 55 73 102 76 105 3 3 11 13 16 22 30 50 170 254 179 260 6 4 8
8 4 8 -4 0 30 60 75 133 46 72 109 177 141 232 32 55 66 111 74 125 9 14 14
25 11 25 -2 0 6 14 17 30 12 17 40 66 64 110 23 44 54 100 68 125 34 62 204
394 203 397 0 2 11 29 26 60 15 32 28 60 28 63 1 3 9 23 19 45 28 63 39 90 40
95 1 3 16 43 34 90 54 137 57 145 58 150 0 3 4 13 7 23 16 42 20 53 22 63 3
11 81 244 93 274 3 8 6 18 7 23 2 4 4 9 5 12 1 3 3 8 4 13 1 4 5 13 9 20 5 6
6 12 2 12 -7 0 31 71 64 120 13 19 45 52 71 73 27 21 56 46 67 55 10 10 56 47
103 83 47 37 101 81 120 98 19 17 38 31 41 31 4 0 21 12 37 28 17 15 45 38 63
52 56 43 233 184 245 195 6 5 23 19 39 30 15 11 36 29 46 39 11 11 19 17 19
13 0 -4 8 1 18 11 10 9 35 31 57 47 21 17 50 40 63 53 12 12 27 22 32 22 4 0
10 3 12 8 2 4 35 32 73 62 39 30 81 65 95 77 14 13 29 23 34 23 5 0 15 8 23
18 13 16 14 16 9 -3 -21 -81 -44 -194 -51 -245 -3 -19 -9 -64 -14 -100 -10
-65 -7 -384 3 -450 22 -136 63 -289 102 -380 29 -66 97 -197 116 -224 56 -79
132 -170 173 -205 16 -14 40 -36 52 -48 13 -13 28 -23 32 -23 5 0 14 -7 21
-15 30 -36 169 -109 335 -176 83 -33 273 -61 415 -62 66 0 232 11 260 16 8 2
38 7 65 11 28 4 66 12 85 16 19 5 47 11 61 14 84 14 300 85 429 141 47 20 94
38 105 41 11 2 21 8 23 14 2 5 10 10 17 10 20 0 305 148 430 223 61 37 123 74
140 84 16 10 34 22 40 26 5 4 39 27 75 50 36 23 70 45 75 50 6 4 42 30 80 57
39 27 75 53 80 57 6 5 48 37 95 72 47 35 90 69 95 75 6 7 26 23 45 36 19 13
37 27 40 30 3 3 28 23 55 45 28 22 57 46 66 55 9 8 30 26 49 40 18 14 44 35
59 48 14 13 46 40 71 60 24 20 54 46 65 58 11 11 63 56 115 100 52 43 101 84
108 91 31 29 26 8 -18 -80 -74 -150 -130 -314 -147 -439 -13 -89 -7 -248 10
-316 30 -115 83 -205 173 -296 48 -49 113 -84 194 -106 68 -19 203 -14 290 9
41 12 83 23 93 25 20 6 285 135 332 163 69 41 140 88 143 95 2 5 8 8 12 8 8 0
102 61 135 87 6 5 39 30 75 57 80 60 141 108 156 121 6 6 28 24 49 40 21 17
43 35 49 40 6 6 38 32 71 60 33 27 70 60 82 72 12 13 26 23 30 23 5 0 15 8 24
18 8 9 46 44 83 77 38 33 84 75 103 93 18 17 35 32 37 32 1 0 30 26 63 58 94
90 132 122 136 114 7 -12 -6 -207 -13 -207 -1 0 -3 -11 -5 -25 -4 -28 -8 -47
-24 -107 -16 -59 -31 -132 -36 -178 -3 -22 -8 -56 -11 -75 -8 -52 -13 -90 -19
-140 -3 -25 -7 -58 -9 -75 -2 -16 -7 -61 -11 -100 -3 -38 -8 -88 -10 -110 -4
-37 -11 -131 -20 -265 -5 -76 -5 -573 -1 -640 2 -30 7 -91 11 -135 4 -44 7
-87 7 -95 1 -42 41 -238 69 -330 37 -127 86 -233 147 -320 52 -74 151 -179
170 -180 6 0 12 -4 12 -10 0 -5 7 -10 15 -10 8 0 15 -5 15 -10 0 -6 3 -9 8 -8
4 1 23 -5 42 -15 38 -18 160 -49 160 -40 0 3 6 1 13 -4 19 -15 198 -7 268 13
90 24 328 141 337 165 2 5 8 9 13 9 6 0 15 4 22 10 7 5 59 46 116 90 155 118
246 204 483 451 29 30 91 100 137 155 47 54 89 104 95 109 6 6 27 30 46 55 19
25 44 56 57 70 23 26 422 535 458 584 11 15 28 37 37 49 10 12 21 27 26 32 4
6 63 84 130 175 68 91 132 176 143 190 29 37 214 296 256 360 21 30 40 57 43
60 14 13 50 70 50 80 0 5 5 10 10 10 6 0 10 6 10 13 0 8 9 22 20 32 11 10 20
22 20 27 0 5 5 14 10 21 23 26 130 196 130 205 0 6 3 12 8 14 8 4 93 143 147
243 21 39 42 73 48 76 5 3 8 9 8 13 -1 3 19 46 44 96 56 112 96 229 99 293 5
91 -52 121 -115 61 -16 -15 -29 -32 -29 -37 0 -4 -11 -23 -25 -41 -14 -18 -25
-36 -25 -40 0 -3 -12 -25 -27 -49 -35 -54 -45 -69 -64 -104 -36 -64 -274 -438
-281 -441 -5 -2 -6 -8 -2 -13 3 -5 1 -9 -3 -9 -5 0 -19 -20 -33 -45 -14 -25
-28 -45 -32 -45 -5 0 -8 -6 -8 -13 0 -7 -8 -22 -18 -33 -11 -11 -21 -24 -23
-29 -6 -14 -162 -249 -169 -255 -3 -3 -19 -26 -35 -52 -17 -27 -33 -48 -37
-48 -5 0 -8 -5 -8 -10 0 -6 -5 -16 -10 -23 -6 -7 -32 -42 -58 -78 -52 -73 -78
-109 -134 -181 -21 -26 -38 -50 -38 -53 0 -3 -8 -13 -17 -23 -10 -10 -29 -33
-43 -52 -14 -18 -36 -47 -50 -64 -14 -17 -30 -38 -37 -46 -34 -44 -86 -107
-101 -125 -10 -11 -54 -63 -97 -115 -44 -52 -91 -107 -105 -121 -14 -15 -38
-42 -54 -60 -130 -153 -464 -495 -582 -596 -27 -23 -63 -54 -79 -70 -17 -15
-50 -44 -74 -63 -24 -19 -57 -47 -74 -62 -18 -15 -35 -28 -39 -28 -4 0 -13 -6
-20 -12 -28 -27 -128 -98 -137 -98 -5 0 -11 -3 -13 -7 -4 -10 -85 -63 -96 -63
-4 0 -23 -11 -42 -25 -18 -13 -37 -22 -41 -19 -5 3 -9 0 -9 -6 0 -6 -4 -8 -10
-5 -5 3 -10 3 -10 -2 0 -7 -104 -53 -132 -59 -5 -1 -9 -2 -10 -4 -2 -1 -12 -3
-23 -5 -11 -2 -31 -6 -45 -10 -27 -7 -145 -8 -170 -1 -8 2 -29 7 -47 11 -17 4
-41 16 -52 27 -12 10 -21 16 -21 12 0 -19 -85 85 -110 135 -63 125 -85 258
-84 516 1 145 10 322 20 368 2 12 7 42 9 67 3 25 7 56 9 69 3 13 8 49 12 80 3
31 8 65 11 76 6 31 11 57 18 100 16 96 13 81 90 450 3 11 11 47 20 80 8 33 16
69 18 80 2 11 7 27 10 35 4 8 9 26 11 40 8 42 15 71 21 90 3 10 8 27 10 37 4
16 38 142 50 186 3 9 7 25 10 35 30 114 37 139 42 152 3 8 7 20 9 25 13 50 80
271 94 313 10 28 16 52 14 52 -2 0 2 13 11 30 8 16 15 33 15 37 0 8 17 68 27
93 4 8 7 17 8 20 1 4 35 113 40 130 6 20 58 126 63 130 4 3 16 23 27 45 11 22
23 42 26 45 3 3 12 16 19 30 7 14 44 71 81 128 38 57 69 107 69 113 0 5 3 9 8
9 4 0 18 18 32 40 14 22 28 40 32 40 5 0 8 7 8 15 0 8 5 15 11 15 5 0 8 4 5 9
-4 5 -3 11 2 13 4 1 50 62 102 133 52 72 100 137 107 145 24 30 159 210 183
245 14 20 30 42 35 48 6 7 22 28 35 47 13 19 28 40 33 45 5 6 35 48 68 95 33
47 66 93 74 103 8 9 15 19 15 22 0 6 71 107 80 115 4 3 9 12 13 20 4 8 32 51
62 95 31 44 60 87 65 95 6 8 33 48 60 88 28 40 50 77 50 82 0 6 5 10 10 10 6
0 10 5 10 11 0 6 10 25 23 42 12 17 27 40 32 49 6 10 36 59 68 109 31 50 57
95 57 100 0 5 5 9 10 9 6 0 10 4 10 9 0 5 25 51 56 102 31 51 60 103 65 114 5
11 18 34 29 50 34 53 242 460 297 581 40 87 134 328 136 347 1 9 4 17 7 17 3
0 6 8 7 18 1 9 7 31 14 47 7 17 13 35 14 40 0 6 3 15 7 20 6 11 54 210 63 265
3 19 8 87 11 150 5 97 3 128 -15 199 -38 152 -111 260 -210 310 -49 25 -130
40 -186 33z m91 -600 c-3 -5 -7 -19 -10 -33 -20 -92 -39 -167 -61 -249 -14
-52 -28 -105 -31 -118 -3 -18 -75 -242 -98 -307 -2 -5 -4 -12 -4 -15 0 -3 -9
-27 -20 -55 -24 -63 -31 -83 -33 -93 0 -4 -6 -16 -12 -27 -6 -11 -12 -24 -13
-30 -9 -45 -200 -451 -292 -620 -57 -106 -145 -259 -151 -265 -3 -3 -17 -25
-30 -50 -14 -25 -42 -71 -63 -103 -21 -32 -38 -61 -38 -63 0 -3 -8 -17 -19
-32 -10 -15 -59 -88 -108 -162 -130 -197 -299 -431 -315 -438 -5 -2 -8 -8 -8
-13 0 -5 -7 -17 -16 -26 -8 -10 -29 -36 -46 -58 -48 -64 -72 -95 -91 -118 -10
-12 -26 -34 -35 -49 -9 -16 -20 -28 -25 -28 -31 0 97 368 220 630 14 30 26 61
26 68 0 6 4 12 9 12 4 0 8 4 8 10 0 20 230 493 242 498 5 2 8 9 8 15 0 7 7 26
16 42 9 17 43 81 75 143 32 62 74 140 93 175 18 34 62 114 96 177 34 63 66
119 71 125 5 5 9 17 9 27 0 10 4 18 8 18 4 0 21 26 37 58 15 31 36 69 46 83
10 14 16 29 12 33 -3 3 -2 6 4 6 6 0 16 12 23 28 20 47 34 72 43 72 4 0 6 4 3
9 -3 5 1 14 9 21 8 7 15 16 15 21 0 10 158 278 176 300 8 9 11 19 7 22 -3 4
-2 7 4 7 6 0 16 14 23 30 7 17 16 30 21 30 4 0 11 10 15 22 3 12 13 28 20 36
8 7 14 20 14 28 0 8 4 14 9 14 5 0 12 8 15 18 4 10 14 27 24 38 9 11 32 42 51
69 30 45 58 75 69 75 2 0 1 -4 -2 -8z m-6797 -2945 c25 -31 14 -162 -21 -237
-36 -80 -48 -102 -94 -171 -29 -41 -63 -88 -78 -104 -14 -15 -26 -31 -26 -36
0 -4 -9 -11 -20 -14 -11 -3 -20 -11 -20 -16 0 -14 -125 -132 -195 -184 -22
-17 -46 -36 -53 -42 -7 -7 -39 -29 -70 -50 -31 -21 -59 -40 -62 -43 -3 -3 -14
-10 -25 -16 -255 -140 -395 -186 -536 -175 -22 1 -41 45 -26 60 6 6 8 11 3 11
-4 0 3 19 15 43 30 59 29 58 77 126 23 34 42 64 42 67 0 2 7 12 15 22 9 9 41
51 72 92 31 41 61 80 67 86 6 6 31 35 56 64 88 104 247 256 345 330 22 16 45
34 52 40 7 5 17 10 23 10 5 0 10 4 10 8 0 4 12 13 28 20 15 7 52 26 82 42 64
35 88 44 195 80 70 24 83 26 106 14 14 -7 31 -19 38 -27z m4248 -856 c79 -49
46 -220 -75 -391 -55 -77 -124 -148 -296 -305 -54 -49 -111 -101 -126 -115
-15 -14 -67 -61 -116 -106 -49 -45 -105 -95 -124 -113 -19 -18 -48 -42 -63
-54 -16 -12 -36 -29 -45 -38 -41 -40 -162 -141 -287 -240 -49 -39 -100 -79
-112 -89 -12 -10 -24 -16 -27 -13 -3 4 -6 2 -6 -4 0 -6 -15 -20 -32 -31 -27
-16 -147 -97 -194 -130 -30 -21 -214 -116 -234 -120 -83 -19 -136 -21 -152 -4
-8 8 63 152 98 199 13 17 24 34 24 38 0 6 40 66 51 75 3 3 29 40 59 83 29 42
57 77 62 77 4 0 8 6 8 13 0 6 12 26 28 42 15 17 50 59 77 95 28 36 57 72 65
81 8 8 33 37 55 64 22 27 54 63 70 81 17 18 57 63 90 100 91 103 343 354 355
354 5 0 10 7 10 15 0 8 6 15 14 15 8 0 16 4 18 9 5 13 139 124 243 201 144
106 298 193 366 207 16 3 31 8 33 12 2 3 33 7 68 9 48 2 70 -2 95 -17z m-9066
-2705 c-17 -36 -31 -70 -31 -76 0 -5 -4 -10 -10 -10 -5 0 -9 -3 -8 -7 3 -10
-91 -206 -102 -213 -4 -3 -10 -15 -14 -27 -14 -44 -296 -538 -316 -553 -4 -3
-13 -16 -20 -29 -7 -14 -17 -30 -21 -35 -19 -23 -140 -202 -146 -216 -4 -8 -9
-17 -13 -20 -4 -4 -58 -72 -97 -125 -18 -24 -88 -110 -93 -115 -3 -3 -32 -36
-64 -75 -84 -99 -333 -344 -386 -380 -25 -16 -52 -36 -60 -44 -41 -39 -264
-164 -274 -153 -17 16 11 135 46 197 7 11 20 37 31 59 30 61 158 270 170 278
7 4 8 8 2 8 -6 0 -6 3 0 8 6 4 37 45 70 92 62 90 328 443 345 460 3 3 21 25
40 50 19 25 37 47 40 50 3 3 23 28 45 55 21 28 42 52 45 55 3 3 25 30 50 60
25 30 47 57 50 60 3 3 32 37 65 75 212 247 471 507 582 583 47 33 97 61 101
57 2 -2 -10 -33 -27 -69z"/>
</g>
</svg>
